<svg id="Layer_1" data-name="Layer 1" xmlns="http://www.w3.org/2000/svg" viewBox="0 0 120.23 72.39"><title>logo</title><path d="M368.51-79.88" transform="translate(-1.06 -1)" style="fill:none"/><path d="M368.51-68.41" transform="translate(-1.06 -1)" style="fill:none"/><path d="M368.51-69.68" transform="translate(-1.06 -1)" style="fill:none"/><path d="M97.26,32.58a1.61,1.61,0,0,0-.15.47,1.61,1.61,0,0,1,.15-.47c0-.16,0-.31,0-.46V32l0-.35c0-.35.06-.7-.28-.94a.18.18,0,0,0,0-.22c.12-.08.09-.17,0-.25-.08-.26-.17-.52-.25-.78a1.28,1.28,0,0,0-.1-.77,19,19,0,0,0-1.77-3.55A16,16,0,0,0,85.11,18a15.65,15.65,0,0,0-9.36.26,20.56,20.56,0,0,0-7.2,4.48A30.32,30.32,0,0,0,64,28.07a6.86,6.86,0,0,0-1.09,1.72h0L62.05,31v0a.36.36,0,0,0-.25.39,3.2,3.2,0,0,0-.52.89.32.32,0,0,0-.21.33l0,0v0a.19.19,0,0,0-.11.19c0,.38-.43.53-.57.86a13,13,0,0,1-1.14,1.89c-.13,0-.25.12-.22.3s-.26.23-.27.43c-.15,0-.25.12-.23.29l-.72,1.11-.13.1h0c-.25,0-.27.19-.28.37a.15.15,0,0,0-.08.08.27.27,0,0,0-.26.28l-.48.58a.29.29,0,0,0-.26.27c-.17.18-.33.37-.49.55a.34.34,0,0,0-.25.28,16.81,16.81,0,0,0-.48.49h0a.15.15,0,0,0-.14.15l-.09.08a.15.15,0,0,0-.15.13h0a.26.26,0,0,0-.24.25l0,0,0,0a1.47,1.47,0,0,0-.88.74s0,0,0,0a.48.48,0,0,0-.44.35l-.17.14a1.25,1.25,0,0,0-.81.59l-.41.2c-.07,0-.11,0-.12.08h0a4.13,4.13,0,0,0-1.4.82,0,0,0,0,0-.06,0,7.22,7.22,0,0,0-1.63.59c-.37.13-.85.1-1.12.49H47.2a3.38,3.38,0,0,0-1.36.28l-.23,0a5.06,5.06,0,0,0-1.59.23l-.48,0h-.48a7.78,7.78,0,0,0-1.6,0l-.47,0-2.1-.47c-.89-.18-1.68-.62-2.54-.88a0,0,0,0,0-.06,0c-.06-.13-.14-.23-.31-.21l-.17,0a.36.36,0,0,0-.44-.22l-.66-.5c-.3-.3-.58-.62-.9-.89A12,12,0,0,1,31,39.33a12.89,12.89,0,0,1-1.76-8,14.15,14.15,0,0,1,1.05-4.15,13.53,13.53,0,0,1,5.35-6,12.65,12.65,0,0,1,10.41-1.31,12.91,12.91,0,0,1,5.7,3.35,2,2,0,0,0,1.1.61,2.3,2.3,0,0,0,2.58-1.24,2.16,2.16,0,0,0-.57-2.75,17.76,17.76,0,0,0-7.68-4.47c-.46-.13-.53-.31-.33-.74A14.86,14.86,0,0,1,57.42,6a14.26,14.26,0,0,1,7.08.13A15,15,0,0,1,71.22,10a16.29,16.29,0,0,1,2.5,3.27,2.31,2.31,0,0,0,3,.75,2.41,2.41,0,0,0,.66-3.54,21.57,21.57,0,0,0-3.93-4.6,19.53,19.53,0,0,0-8.74-4.39,19.07,19.07,0,0,0-7.6-.13A19.37,19.37,0,0,0,47.3,6.24a19,19,0,0,0-5.24,8,.6.6,0,0,1-.65.43,16.92,16.92,0,0,0-3.88.64A18,18,0,0,0,30,19.65a17.26,17.26,0,0,0-4.48,6.92,11.35,11.35,0,0,0-.88,4.19h0c-.16.14-.13.28,0,.43a17.58,17.58,0,0,0,0,2.81.44.44,0,0,0,0,.58s0,.05,0,.08l0,.14,0,.22a1,1,0,0,0,.21,1c0,.37-.08.74.22,1v.05a.48.48,0,0,0,.12.43v.06a1.5,1.5,0,0,0,.33,1l.16.45.11.2a4.14,4.14,0,0,0,.42,1l.08.18c.45.59.65,1.32,1,1.93a17.58,17.58,0,0,0,2.55,3,12.84,12.84,0,0,0,3,2.34l.18.14h0a.35.35,0,0,0,.3.13.38.38,0,0,0,.32.22l.16,0a.3.3,0,0,0,.31.2h0a.2.2,0,0,0,.27.12,3.44,3.44,0,0,0,1.5.63.28.28,0,0,0,.33.2l.4.05h0a.27.27,0,0,0,.33.2,5.49,5.49,0,0,0,1.15.26c.12.13.24.16.37,0l0,0h0c.21.31.53.25.83.27l.71.06c.34.23.75.13,1.12.17a10.75,10.75,0,0,0,3.53-.17,3.23,3.23,0,0,0,1-.09c.24,0,.53.06.67-.23l.22,0c.17.17.33.11.49,0l1.15-.24a.76.76,0,0,0,.64-.22l.21,0a.37.37,0,0,0,.45-.21.85.85,0,0,0,.54-.13.64.64,0,0,0,.5-.24h0a.35.35,0,0,0,.42-.23l.28,0a.25.25,0,0,0,.28-.13l.32-.14a.22.22,0,0,0,.22-.19.35.35,0,0,0,.31-.09.43.43,0,0,0,.41-.27h0a.31.31,0,0,0,.3-.16l.2-.1a.3.3,0,0,0,.32-.23c.26,0,.4-.18.57-.33A1.09,1.09,0,0,0,55,46.5a3.58,3.58,0,0,0,.42-.25,30.37,30.37,0,0,0,7.35-8.1.31.31,0,0,0,.25-.31v-.05a.44.44,0,0,0,.34-.45A4.94,4.94,0,0,0,64,36.18l.16-.16a.65.65,0,0,0,.24-.42.31.31,0,0,0,.22-.32l0,0,0,0a.19.19,0,0,0,.12-.2v0a.27.27,0,0,0,.23-.32l.26-.52a.33.33,0,0,0,.27-.3Q66.74,32,68,30.12a25.37,25.37,0,0,0,1.7-2,23.22,23.22,0,0,1,5.19-4.5,11.58,11.58,0,0,1,5-1.65,12,12,0,0,1,12,7.09,18.85,18.85,0,0,1,1,3.59v2.76a.2.2,0,0,0-.06.27c0,.12,0,.23,0,.34a.73.73,0,0,0-.11.64c-.19.55-.37,1.11-.55,1.66A18.58,18.58,0,0,1,91,40.44a.38.38,0,0,0-.26.3,1.5,1.5,0,0,0-.46.68.26.26,0,0,0-.23.32c-.32.16-.46.49-.71.72a12.51,12.51,0,0,1-5.2,3,12.09,12.09,0,0,1-7.63-.37,13,13,0,0,1-4.22-2.79A2.13,2.13,0,0,0,70,41.91,2.08,2.08,0,0,0,68.54,44c0,1.25.85,1.84,1.62,2.53a.31.31,0,0,0,.26.19,2.62,2.62,0,0,0,1.16.83.45.45,0,0,0,.45.33.36.36,0,0,0,.28.15.4.4,0,0,0,.31.24.36.36,0,0,0,.31.12c.07.2.24.24.41.27l.45.2.3.15a1.42,1.42,0,0,0,.6.23.56.56,0,0,0,.6.23h0a.5.5,0,0,0,.51.23,1.37,1.37,0,0,0,.91.14.45.45,0,0,0,.57.19l.13,0c.09.21.26.23.45.2a4.5,4.5,0,0,0,1.21.14.36.36,0,0,0,.38.08,17,17,0,0,0,2.67,0,.52.52,0,0,0,.51-.08l1.08-.13A2,2,0,0,0,85,49.79a1.67,1.67,0,0,0,.91-.15,1.48,1.48,0,0,0,.95-.42.93.93,0,0,0,.53-.15,3.15,3.15,0,0,0,1.4-.73,1.61,1.61,0,0,0,.38-.16A23,23,0,0,0,93,45.07l.15-.16a.68.68,0,0,0,.35-.43.19.19,0,0,0,.11-.2,13,13,0,0,0,2.22-3.57.3.3,0,0,0,.21-.33l.15-.46a.33.33,0,0,0,.18-.39l0-.22a.53.53,0,0,0,.21-.51,3.06,3.06,0,0,1,.26-1c.14-.16.18-.32,0-.48a.08.08,0,0,0,0-.1c.26-.12.23-.35.21-.57a0,0,0,0,0,0-.06.58.58,0,0,0,.08-.55c0-.19,0-.39.05-.59A6.75,6.75,0,0,0,97.26,32.58Z" transform="translate(-1.06 -1)" style="fill:#f26222"/><path d="M5.29,69.27a.74.74,0,0,1-.72-.56L1.13,58.88c-.09-.27-.09-.46,0-.59a.46.46,0,0,1,.38-.19.5.5,0,0,1,.5.4L5.27,68l3.36-9.35a.73.73,0,0,1,.74-.56.75.75,0,0,1,.75.56L13.38,68l3.34-9.51a.51.51,0,0,1,.52-.4c.21,0,.34.07.39.23a.88.88,0,0,1,0,.55l-3.5,9.83a.71.71,0,0,1-.69.56.73.73,0,0,1-.72-.56L9.37,59.36,6,68.71A.75.75,0,0,1,5.29,69.27Z" transform="translate(-1.06 -1)" style="fill:#081532"/><path d="M25,69.32a5,5,0,0,1-3.84-1.5,5.73,5.73,0,0,1-1.41-4.09,6.68,6.68,0,0,1,.64-3,4.75,4.75,0,0,1,4.41-2.69,4.06,4.06,0,0,1,3.29,1.39,5.76,5.76,0,0,1,1.17,3.84c0,.39-.16.58-.5.58h-8a4.92,4.92,0,0,0,1.15,3.38A4,4,0,0,0,25,68.44a5.8,5.8,0,0,0,1.69-.24,4.83,4.83,0,0,0,1.55-.84.55.55,0,0,1,.53-.14.42.42,0,0,1,.29.34.5.5,0,0,1-.23.49A5.15,5.15,0,0,1,27.1,69,6.6,6.6,0,0,1,25,69.32Zm-.22-10.41A3.58,3.58,0,0,0,22,60.08a5,5,0,0,0-1.19,3h7.64a4.9,4.9,0,0,0-1-3A3.19,3.19,0,0,0,24.81,58.91Z" transform="translate(-1.06 -1)" style="fill:#081532"/><path d="M35.58,69.32a4.3,4.3,0,0,1-1.92-.43,3.48,3.48,0,0,1-1.35-1.16,2.86,2.86,0,0,1-.5-1.64,2.79,2.79,0,0,1,.6-1.9,3.55,3.55,0,0,1,2.05-1,21.93,21.93,0,0,1,4-.28h.68V62a3.65,3.65,0,0,0-.63-2.37,2.56,2.56,0,0,0-2-.74,6.87,6.87,0,0,0-3.45,1,.48.48,0,0,1-.52,0,.5.5,0,0,1-.2-.42.44.44,0,0,1,.25-.41,7.46,7.46,0,0,1,3.87-1.1,3.55,3.55,0,0,1,2.76,1,4.33,4.33,0,0,1,.89,3v6.74c0,.33-.15.49-.45.49s-.47-.16-.47-.49V67.11a3.71,3.71,0,0,1-1.41,1.62A4,4,0,0,1,35.58,69.32Zm.06-.86A3.26,3.26,0,0,0,37.46,68a3.48,3.48,0,0,0,1.23-1.37,4.23,4.23,0,0,0,.45-2v-.84h-.63a25.07,25.07,0,0,0-3.46.19,3.19,3.19,0,0,0-1.72.68A1.85,1.85,0,0,0,32.85,66a2.27,2.27,0,0,0,.76,1.77A2.89,2.89,0,0,0,35.64,68.46Z" transform="translate(-1.06 -1)" style="fill:#081532"/><path d="M47.7,69.32a3.27,3.27,0,0,1-2.57-1,4,4,0,0,1-.86-2.73V59H42.45c-.33,0-.5-.13-.5-.4s.17-.41.5-.41h1.82v-3c0-.33.16-.5.48-.5s.47.17.47.5v3h3.22c.33,0,.5.14.5.41s-.17.4-.5.4H45.22v6.38a3.62,3.62,0,0,0,.59,2.24,2.29,2.29,0,0,0,2,.78,2.72,2.72,0,0,0,.77-.1,1.68,1.68,0,0,1,.51-.11c.23,0,.34.15.34.43a.53.53,0,0,1-.06.24.33.33,0,0,1-.21.17,4.67,4.67,0,0,1-.64.17A4.49,4.49,0,0,1,47.7,69.32Z" transform="translate(-1.06 -1)" style="fill:#081532"/><path d="M51.55,69.27c-.31,0-.47-.16-.47-.49V53.61c0-.33.16-.49.47-.49s.47.16.47.49v6.6a3.6,3.6,0,0,1,1.56-1.62,4.73,4.73,0,0,1,2.27-.54q3.9,0,3.9,4.15v6.58c0,.33-.16.49-.47.49s-.47-.16-.47-.49V62.29a3.88,3.88,0,0,0-.7-2.55,2.84,2.84,0,0,0-2.26-.81A3.74,3.74,0,0,0,53.07,60a3.91,3.91,0,0,0-1,2.87v5.91C52,69.11,51.87,69.27,51.55,69.27Z" transform="translate(-1.06 -1)" style="fill:#081532"/><path d="M68.07,69.32a5,5,0,0,1-3.85-1.5,5.77,5.77,0,0,1-1.4-4.09,6.55,6.55,0,0,1,.64-3,4.82,4.82,0,0,1,1.78-2,4.87,4.87,0,0,1,2.62-.71,4.06,4.06,0,0,1,3.29,1.39,5.76,5.76,0,0,1,1.17,3.84c0,.39-.16.58-.49.58h-8a4.92,4.92,0,0,0,1.14,3.38A4,4,0,0,0,68,68.44a5.8,5.8,0,0,0,1.69-.24,4.87,4.87,0,0,0,1.56-.84.53.53,0,0,1,.52-.14.45.45,0,0,1,.3.34.49.49,0,0,1-.24.49,5.1,5.1,0,0,1-1.71.93A6.7,6.7,0,0,1,68.07,69.32Zm-.23-10.41A3.58,3.58,0,0,0,65,60.08a5,5,0,0,0-1.18,3h7.64a5,5,0,0,0-1-3A3.19,3.19,0,0,0,67.84,58.91Z" transform="translate(-1.06 -1)" style="fill:#081532"/><path d="M75.79,69.27c-.31,0-.47-.16-.47-.49V58.59c0-.33.16-.49.47-.49s.45.16.45.49v1.62a3.6,3.6,0,0,1,1.54-1.64,4.59,4.59,0,0,1,2.3-.57.71.71,0,0,1,.34.08.33.33,0,0,1,.15.31.44.44,0,0,1-.49.49l-.28,0A4,4,0,0,0,77.2,60a3.57,3.57,0,0,0-.93,2.57v6.18A.43.43,0,0,1,75.79,69.27Z" transform="translate(-1.06 -1)" style="fill:#081532"/><path d="M86.23,69.38A5.07,5.07,0,0,1,84,68.91a3.89,3.89,0,0,1-1.53-1.29,3.3,3.3,0,0,1-.55-1.89,2.76,2.76,0,0,1,.63-1.9,3.67,3.67,0,0,1,2-1,17.67,17.67,0,0,1,3.72-.31h.86V62.2a1.39,1.39,0,0,0-.42-1.15,2.27,2.27,0,0,0-1.43-.34,7.08,7.08,0,0,0-1.23.12,10,10,0,0,0-1.5.44,1.38,1.38,0,0,1-1.23,0,1.36,1.36,0,0,1-.65-.84,1.6,1.6,0,0,1,.12-1.11,1.62,1.62,0,0,1,1-.82,11.18,11.18,0,0,1,2-.53,10.45,10.45,0,0,1,1.68-.15A6,6,0,0,1,91.56,59a4.76,4.76,0,0,1,1.34,3.76v4.55c0,1.35-.61,2-1.84,2a1.68,1.68,0,0,1-1.87-1.8,2.68,2.68,0,0,1-1.09,1.35A3.36,3.36,0,0,1,86.23,69.38Zm.91-2.61a2,2,0,0,0,1.4-.54,1.83,1.83,0,0,0,.58-1.42V64.4h-.86a5,5,0,0,0-2,.29.93.93,0,0,0-.62.89,1.09,1.09,0,0,0,.38.85A1.5,1.5,0,0,0,87.14,66.77Z" transform="translate(-1.06 -1)" style="fill:#081532"/><path d="M97.16,73.39a1.77,1.77,0,0,1-2-2V59.85a1.75,1.75,0,0,1,2-2,1.72,1.72,0,0,1,2,1.66,3.19,3.19,0,0,1,1.36-1.25,4.51,4.51,0,0,1,2-.46,4.6,4.6,0,0,1,2.51.7,4.68,4.68,0,0,1,1.71,2,7,7,0,0,1,.62,3.09,7.19,7.19,0,0,1-.61,3.09,4.43,4.43,0,0,1-4.23,2.7,4.5,4.5,0,0,1-1.93-.42,3.3,3.3,0,0,1-1.36-1.15v3.56a2,2,0,0,1-.53,1.51A2.07,2.07,0,0,1,97.16,73.39Zm4.06-7a1.86,1.86,0,0,0,1.48-.67,3.29,3.29,0,0,0,.59-2.17,3.25,3.25,0,0,0-.59-2.17,1.9,1.9,0,0,0-1.48-.67,1.93,1.93,0,0,0-1.51.67,3.25,3.25,0,0,0-.59,2.17,3.29,3.29,0,0,0,.59,2.17A1.9,1.9,0,0,0,101.22,66.43Z" transform="translate(-1.06 -1)" style="fill:#081532"/><path d="M111.13,73.39a1.77,1.77,0,0,1-2-2V59.85a1.75,1.75,0,0,1,2-2,1.72,1.72,0,0,1,2,1.66,3.19,3.19,0,0,1,1.36-1.25,4.51,4.51,0,0,1,2-.46,4.62,4.62,0,0,1,2.51.7,4.68,4.68,0,0,1,1.71,2,7,7,0,0,1,.62,3.09,7.19,7.19,0,0,1-.61,3.09,4.43,4.43,0,0,1-4.23,2.7,4.5,4.5,0,0,1-1.93-.42,3.3,3.3,0,0,1-1.36-1.15v3.56a2,2,0,0,1-.53,1.51A2.07,2.07,0,0,1,111.13,73.39Zm4.06-7a1.86,1.86,0,0,0,1.48-.67,3.29,3.29,0,0,0,.59-2.17,3.25,3.25,0,0,0-.59-2.17,1.9,1.9,0,0,0-1.48-.67,1.93,1.93,0,0,0-1.51.67,3.25,3.25,0,0,0-.59,2.17,3.29,3.29,0,0,0,.59,2.17A1.9,1.9,0,0,0,115.19,66.43Z" transform="translate(-1.06 -1)" style="fill:#081532"/></svg>