<svg id="Layer_1" data-name="Layer 1" xmlns="http://www.w3.org/2000/svg" viewBox="0 0 36.71 28.71"><title>rh</title><path d="M35.46,14.24a69,69,0,0,1,5,8,28.56,28.56,0,0,1,2.62,6.55,10.26,10.26,0,0,1-.3,6,6.27,6.27,0,0,1-4.29,4.11,10,10,0,0,1-5.9,0,6.86,6.86,0,0,1-4.86-6.37,11.77,11.77,0,0,1,.23-3.79.55.55,0,0,1,.51-.48,6.08,6.08,0,0,0,5.22-6,10.15,10.15,0,0,0-.53-3.75,1,1,0,0,1,0-.73C33.88,16.62,34.64,15.49,35.46,14.24Zm-5.2,16.68c0-.24,0-.48,0-.72,0-.44-.09-.78-.59-.82s-.73.29-.75.74a16.83,16.83,0,0,0,0,1.88,5.72,5.72,0,0,0,4.48,5.15c.42.08.84.1,1-.43s-.16-.78-.6-.87C31.51,35.38,30.17,33.51,30.26,30.92Z" transform="translate(-6.64 -10.64)" style="fill:#081532"/><path d="M27,10.64c2,3,3.92,5.91,4.85,9.37a6.57,6.57,0,0,1-.07,3.52c-.75,2.6-3,3.44-5.35,3.25-4.13-.32-4.91-3.78-4.37-6.53a20.53,20.53,0,0,1,2.78-6.34c.56-.93,1.17-1.83,1.76-2.75C26.74,11,26.87,10.85,27,10.64ZM23.59,21.23s.05-.15,0-.23-.22-.4-.33-.6c-.17.17-.42.32-.5.53a2.15,2.15,0,0,0,0,.84,3.72,3.72,0,0,0,2.86,3.59c.21,0,.47-.16.7-.26-.16-.18-.28-.48-.48-.54A3,3,0,0,1,23.59,21.23Z" transform="translate(-6.64 -10.64)" style="fill:#081532"/><path d="M9.49,34.73l2.16-4.18c1.85-3.57,3.72-7.13,5.55-10.7.22-.44.46-.66,1-.59a10.87,10.87,0,0,0,1.29,0c-.26.51-.46.94-.68,1.36-2.3,4.45-4.62,8.89-6.89,13.35-.29.56-.59.85-1.23.76A8.83,8.83,0,0,0,9.49,34.73Z" transform="translate(-6.64 -10.64)" style="fill:#081532"/><path d="M19.05,34.72a3.23,3.23,0,0,1-3.22-3.3,3.25,3.25,0,0,1,6.5.06A3.22,3.22,0,0,1,19.05,34.72Zm1.57-3.27A1.52,1.52,0,0,0,19,30a1.48,1.48,0,0,0-1.47,1.58A1.53,1.53,0,0,0,19.1,33,1.56,1.56,0,0,0,20.62,31.45Z" transform="translate(-6.64 -10.64)" style="fill:#081532"/><path d="M9.87,25.75A3.24,3.24,0,1,1,10,19.27a3.24,3.24,0,0,1-.09,6.48Zm0-1.71A1.53,1.53,0,1,0,8.36,22.5,1.51,1.51,0,0,0,9.89,24Z" transform="translate(-6.64 -10.64)" style="fill:#081532"/></svg>