<svg id="Layer_1" data-name="Layer 1" xmlns="http://www.w3.org/2000/svg" viewBox="0 0 46.85 39.71"><title>rh</title><path d="M40.53,8.74a70.71,70.71,0,0,1,5,8,28.63,28.63,0,0,1,2.62,6.56,10.27,10.27,0,0,1-.3,6,6.29,6.29,0,0,1-4.29,4.11,10,10,0,0,1-5.9,0,6.86,6.86,0,0,1-4.86-6.37A11.77,11.77,0,0,1,33,23.26a.53.53,0,0,1,.51-.47,6.1,6.1,0,0,0,5.22-6A10.15,10.15,0,0,0,38.2,13a1,1,0,0,1,0-.73C39,11.13,39.71,10,40.53,8.74Zm-5.2,16.69c0-.24,0-.49,0-.73,0-.43-.09-.77-.59-.81s-.73.28-.75.74a16.67,16.67,0,0,0,0,1.87,5.7,5.7,0,0,0,4.48,5.15c.42.09.84.1,1-.42a.67.67,0,0,0-.6-.88C36.58,29.89,35.24,28,35.33,25.43Z" transform="translate(-1.57 -5.15)" style="fill:#081532"/><path d="M34.71,33.84l2.07,1.06A18.69,18.69,0,1,1,27.75,9l-1,2.09a16.23,16.23,0,0,0-15.3,1.42,15.73,15.73,0,0,0-6.76,9.15,16.32,16.32,0,0,0,30.06,12.2Z" transform="translate(-1.57 -5.15)" style="fill:#081532"/><path d="M32.1,5.15c2,3,3.92,5.91,4.85,9.36A6.61,6.61,0,0,1,36.88,18c-.75,2.59-3,3.43-5.35,3.25-4.13-.32-4.91-3.78-4.37-6.54a20.58,20.58,0,0,1,2.78-6.33c.56-.94,1.17-1.84,1.76-2.75C31.81,5.5,31.94,5.35,32.1,5.15ZM28.66,15.73a.41.41,0,0,0,0-.23c-.09-.21-.22-.4-.33-.6-.17.18-.42.33-.5.54a2.14,2.14,0,0,0,0,.84,3.71,3.71,0,0,0,2.86,3.58c.21,0,.47-.16.7-.25-.16-.19-.28-.48-.48-.55A3,3,0,0,1,28.66,15.73Z" transform="translate(-1.57 -5.15)" style="fill:#081532"/><path d="M15.34,33.85c.76-1.47,1.45-2.83,2.16-4.18C19.35,26.1,21.21,22.54,23,19c.23-.44.46-.66,1-.59a10.9,10.9,0,0,0,1.29,0c-.25.51-.46.94-.68,1.37C22.32,24.2,20,28.64,17.73,33.1c-.28.56-.58.85-1.23.76A8.67,8.67,0,0,0,15.34,33.85Z" transform="translate(-1.57 -5.15)" style="fill:#081532"/><path d="M24.9,33.85a3.26,3.26,0,1,1,3.27-3.25A3.24,3.24,0,0,1,24.9,33.85Zm1.56-3.28a1.52,1.52,0,0,0-1.58-1.49,1.48,1.48,0,0,0-1.47,1.58A1.53,1.53,0,0,0,25,32.14,1.55,1.55,0,0,0,26.46,30.57Z" transform="translate(-1.57 -5.15)" style="fill:#081532"/><path d="M15.71,24.87A3.24,3.24,0,1,1,19,21.68,3.19,3.19,0,0,1,15.71,24.87Zm0-1.7a1.52,1.52,0,0,0,1.52-1.55,1.53,1.53,0,0,0-3.05,0A1.54,1.54,0,0,0,15.73,23.17Z" transform="translate(-1.57 -5.15)" style="fill:#081532"/></svg>